<svg width="100" height="100" viewBox="0 0 100 100" xmlns="http://www.w3.org/2000/svg">
  <defs>
    <linearGradient id="leafGradient" x1="0%" y1="0%" x2="100%" y2="100%">
      <stop offset="0%" stop-color="#10b981" />
      <stop offset="100%" stop-color="#059669" />
    </linearGradient>
  </defs>
  <path d="M50,10 C70,15 85,35 85,55 C85,75 70,90 50,90 C30,90 15,75 15,55 C15,35 30,15 50,10 Z" 
        fill="url(#leafGradient)" opacity="0.8"/>
  <path d="M50,15 C65,20 78,38 78,55 C78,72 65,85 50,85 C35,85 22,72 22,55 C22,38 35,20 50,15 Z" 
        fill="url(#leafGradient)"/>
  <path d="M50,10 C50,10 25,30 22,55 C22,75 30,85 50,85 C70,85 78,75 78,55 C75,30 50,10 50,10 Z" 
        fill="none" stroke="#047857" stroke-width="1"/>
  <line x1="50" y1="10" x2="50" y2="85" stroke="#047857" stroke-width="1.5" stroke-linecap="round"/>
  <line x1="50" y1="30" x2="70" y2="25" stroke="#047857" stroke-width="1" stroke-linecap="round"/>
  <line x1="50" y1="45" x2="75" y2="35" stroke="#047857" stroke-width="1" stroke-linecap="round"/>
  <line x1="50" y1="60" x2="70" y2="65" stroke="#047857" stroke-width="1" stroke-linecap="round"/>
  <line x1="50" y1="30" x2="30" y2="25" stroke="#047857" stroke-width="1" stroke-linecap="round"/>
  <line x1="50" y1="45" x2="25" y2="35" stroke="#047857" stroke-width="1" stroke-linecap="round"/>
  <line x1="50" y1="60" x2="30" y2="65" stroke="#047857" stroke-width="1" stroke-linecap="round"/>
</svg>