<svg width="200" height="100" viewBox="0 0 200 100" xmlns="http://www.w3.org/2000/svg">
  <defs>
    <linearGradient id="waveGradient" x1="0%" y1="0%" x2="100%" y2="0%">
      <stop offset="0%" stop-color="#0ea5e9" />
      <stop offset="50%" stop-color="#06b6d4" />
      <stop offset="100%" stop-color="#0891b2" />
    </linearGradient>
    <filter id="waveBlur" x="-20%" y="-20%" width="140%" height="140%">
      <feGaussianBlur in="SourceGraphic" stdDeviation="2" result="blur" />
      <feComposite in="SourceGraphic" in2="blur" operator="over" />
    </filter>
  </defs>
  <path d="M0,50 C30,30 70,70 100,50 C130,30 170,70 200,50 L200,100 L0,100 Z" 
        fill="url(#waveGradient)" opacity="0.6" />
  <path d="M0,60 C30,40 70,80 100,60 C130,40 170,80 200,60 L200,100 L0,100 Z" 
        fill="url(#waveGradient)" opacity="0.4" />
  <path d="M0,40 C30,20 70,60 100,40 C130,20 170,60 200,40" 
        fill="none" stroke="url(#waveGradient)" stroke-width="2" filter="url(#waveBlur)" />
  <circle cx="50" cy="50" r="3" fill="white" opacity="0.8" />
  <circle cx="100" cy="50" r="4" fill="white" opacity="0.9" />
  <circle cx="150" cy="50" r="3" fill="white" opacity="0.8" />
</svg>